<?xml version="1.0" encoding="iso-8859-1"?>
<!-- Generator: Adobe Illustrator 19.0.0, SVG Export Plug-In . SVG Version: 6.00 Build 0)  -->
<svg version="1.1" id="Capa_1" xmlns="http://www.w3.org/2000/svg" xmlns:xlink="http://www.w3.org/1999/xlink" x="0px" y="0px"
	 viewBox="0 0 496 496" style="enable-background:new 0 0 496 496;" xml:space="preserve">
<g>
	<g>
		<path d="M437.768,480l-6.888-20.648C425.432,442.992,410.176,432,392.936,432h-75.104c-8.336-25.936-12.92-52.792-13.672-80H336
			c28.624,0,52.256-21.6,55.568-49.336C401.08,299.472,408,290.576,408,280c0-13.232-10.768-24-24-24h-40v-8h-16v8h-26.464
			c-7.96-20.56-12.288-42.056-13.16-64.016c28.448-0.192,51.896-21.696,55.192-49.32C353.08,139.472,360,130.576,360,120
			c0-13.232-10.768-24-24-24h-56v-8h-16v8h-32v-8h-16v8h-56c-13.232,0-24,10.768-24,24c0,10.576,6.92,19.472,16.432,22.664
			c3.296,27.624,26.736,49.128,55.192,49.32c-0.872,21.96-5.2,43.456-13.152,64.016H168v-8h-16v8h-40c-13.232,0-24,10.768-24,24
			c0,10.576,6.92,19.472,16.432,22.664C107.744,330.4,131.376,352,160,352h31.84c-0.752,27.208-5.336,54.064-13.672,80h-75.104
			c-17.24,0-32.496,10.992-37.944,27.352L58.232,480H32v16h432v-16H437.768z M160,128c-4.408,0-8-3.592-8-8s3.592-8,8-8h176
			c4.408,0,8,3.592,8,8c0,4.408-3.592,8-8,8H160z M168.808,144h158.384c-3.72,18.232-19.872,32-39.192,32h-80
			C188.688,176,172.528,162.232,168.808,144z M284.4,256h-72.8c7.32-20.648,11.408-42.104,12.208-64h48.376
			C272.984,213.896,277.072,235.352,284.4,256z M104,280c0-4.416,3.592-8,8-8h272c4.408,0,8,3.584,8,8c0,4.416-3.592,8-8,8H112
			C107.592,288,104,284.416,104,280z M160,336c-19.312,0-35.472-13.768-39.192-32h254.384c-3.72,18.232-19.872,32-39.192,32H160z
			 M301.08,432H194.92c7.88-26.008,12.208-52.84,12.92-80h80.32C288.872,379.16,293.2,405.992,301.08,432z M75.104,480l5.192-15.584
			C83.568,454.592,92.72,448,103.064,448h289.872c10.344,0,19.496,6.592,22.768,16.416L420.896,480H75.104z"/>
	</g>
</g>
<g>
	<g>
		<path d="M360.72,8.976l-8.184,13.744c6.984,4.176,12.856,10.096,16.96,17.12l13.824-8.064
			C377.848,22.408,370.04,14.528,360.72,8.976z"/>
	</g>
</g>
<g>
	<g>
		<path d="M274.672,28.616c-6.008,9.048-9.632,19.544-10.472,30.36l15.952,1.24c0.632-8.104,3.344-15.976,7.848-22.752
			L274.672,28.616z"/>
	</g>
</g>
<g>
	<g>
		<path d="M328,0c-0.008,0-0.016,0-0.024,0c-10.216,0-20.392,2.48-29.416,7.16l7.368,14.2C312.784,17.808,320.2,16,327.984,16
			c0,0,0.008,0,0.016,0l1.408,0.016l0.464-15.992L328,0z"/>
	</g>
</g>
<g>
	<g>
		<polygon points="391.992,62.696 375.992,63.024 376,91.264 392,91.264 		"/>
	</g>
</g>
<g>
	<g>
		<rect x="376" y="120" width="16" height="16"/>
	</g>
</g>
<g>
	<g>
		<rect x="440" y="227.432" width="16" height="29.056"/>
	</g>
</g>
<g>
	<g>
		<path d="M364.56,166.168l6.872,14.456c7.544-3.584,15.968-5.112,24.208-4.488l1.2-15.952
			C385.856,159.336,374.632,161.376,364.56,166.168z"/>
	</g>
</g>
<g>
	<g>
		<rect x="440" y="285.552" width="16" height="29.064"/>
	</g>
</g>
<g>
	<g>
		<path d="M427.864,170.984l-8.976,13.24c6.912,4.688,12.512,11.112,16.192,18.576l14.352-7.08
			C444.528,185.768,437.072,177.216,427.864,170.984z"/>
	</g>
</g>
<g>
	<g>
		<path d="M339.504,187.36c-6.368,9.12-10.264,19.792-11.256,30.856l15.944,1.44c0.744-8.296,3.664-16.288,8.432-23.128
			L339.504,187.36z"/>
	</g>
</g>
<g>
	<g>
		<rect x="440" y="344" width="16" height="16"/>
	</g>
</g>
<g>
	<g>
		<polygon points="104.008,62.696 104,91.264 120,91.264 120.008,63.024 		"/>
	</g>
</g>
<g>
	<g>
		<path d="M221.336,28.616L208,37.464c4.504,6.784,7.216,14.648,7.848,22.752l15.96-1.24
			C230.968,48.152,227.344,37.656,221.336,28.616z"/>
	</g>
</g>
<g>
	<g>
		<path d="M135.288,8.984c-9.32,5.544-17.128,13.432-22.6,22.8l13.824,8.064c4.096-7.032,9.968-12.952,16.96-17.12L135.288,8.984z"
			/>
	</g>
</g>
<g>
	<g>
		<path d="M168.024,0c-0.008,0-0.016,0-0.024,0l-1.864,0.024l0.464,15.992L168,16c0.008,0,0.008,0,0.016,0
			c7.776,0,15.192,1.808,22.048,5.36l7.368-14.2C188.416,2.472,178.24,0,168.024,0z"/>
	</g>
</g>
<g>
	<g>
		<rect x="104" y="120" width="16" height="16"/>
	</g>
</g>
<g>
	<g>
		<path d="M156.488,187.368l-13.12,9.168c4.776,6.832,7.688,14.832,8.432,23.128l15.936-1.432
			C166.752,207.16,162.856,196.488,156.488,187.368z"/>
	</g>
</g>
<g>
	<g>
		<rect x="40" y="285.552" width="16" height="29.064"/>
	</g>
</g>
<g>
	<g>
		<path d="M68.136,170.984c-9.2,6.232-16.664,14.792-21.568,24.736l14.352,7.08c3.68-7.464,9.28-13.888,16.192-18.576
			L68.136,170.984z"/>
	</g>
</g>
<g>
	<g>
		<path d="M99.152,160.184l1.2,15.952c8.272-0.616,16.672,0.896,24.216,4.488l6.864-14.456
			C121.368,161.384,110.152,159.352,99.152,160.184z"/>
	</g>
</g>
<g>
	<g>
		<rect x="40" y="227.432" width="16" height="29.056"/>
	</g>
</g>
<g>
	<g>
		<rect x="40" y="344" width="16" height="16"/>
	</g>
</g>
<g>
	<g>
		<rect x="480" y="480" width="16" height="16"/>
	</g>
</g>
<g>
	<g>
		<rect y="480" width="16" height="16"/>
	</g>
</g>
<g>
</g>
<g>
</g>
<g>
</g>
<g>
</g>
<g>
</g>
<g>
</g>
<g>
</g>
<g>
</g>
<g>
</g>
<g>
</g>
<g>
</g>
<g>
</g>
<g>
</g>
<g>
</g>
<g>
</g>
</svg>
